<svg xmlns="http://www.w3.org/2000/svg" width="120" height="140" viewBox="0 0 120 140">
  <!-- Tail (up, excited) -->
  <path d="M30 92 Q12 80 16 58 Q18 45 28 50 Q34 53 28 65 Q22 78 34 88" fill="#D4A574" stroke="#C49668" stroke-width="1"/>
  <path d="M18 62 Q20 54 26 56" stroke="#C49668" stroke-width="1.2" fill="none"/>
  <!-- Body -->
  <ellipse cx="58" cy="92" rx="27" ry="22" fill="#D4A574"/>
  <!-- Belly -->
  <ellipse cx="60" cy="96" rx="16" ry="16" fill="#F5EDE4"/>
  <!-- Body stripes -->
  <path d="M42 80 Q48 76 54 80" stroke="#C49668" stroke-width="2" fill="none" stroke-linecap="round"/>
  <path d="M38 86 Q46 82 52 86" stroke="#C49668" stroke-width="2" fill="none" stroke-linecap="round"/>
  <!-- Back legs -->
  <ellipse cx="42" cy="112" rx="8" ry="6" fill="#D4A574"/>
  <ellipse cx="42" cy="115" rx="7" ry="3" fill="#E8C9A8"/>
  <circle cx="38" cy="116" r="1.5" fill="#E8B4B8"/>
  <circle cx="42" cy="117" r="1.5" fill="#E8B4B8"/>
  <circle cx="46" cy="116" r="1.5" fill="#E8B4B8"/>
  <ellipse cx="72" cy="112" rx="8" ry="6" fill="#B8845A"/>
  <ellipse cx="72" cy="115" rx="7" ry="3" fill="#D4A574"/>
  <circle cx="68" cy="116" r="1.5" fill="#E8B4B8"/>
  <circle cx="72" cy="117" r="1.5" fill="#E8B4B8"/>
  <circle cx="76" cy="116" r="1.5" fill="#E8B4B8"/>
  <!-- Front left paw (raised up!) -->
  <rect x="42" y="82" width="8" height="14" rx="4" fill="#D4A574" transform="rotate(-20 46 89)"/>
  <ellipse cx="40" cy="82" rx="6" ry="4" fill="#E8C9A8" transform="rotate(-20 40 82)"/>
  <circle cx="37" cy="81" r="1.3" fill="#E8B4B8"/>
  <circle cx="40" cy="80" r="1.3" fill="#E8B4B8"/>
  <circle cx="43" cy="81" r="1.3" fill="#E8B4B8"/>
  <!-- Front right paw (raised up!) -->
  <rect x="66" y="82" width="8" height="14" rx="4" fill="#B8845A" transform="rotate(20 70 89)"/>
  <ellipse cx="74" cy="82" rx="6" ry="4" fill="#D4A574" transform="rotate(20 74 82)"/>
  <circle cx="71" cy="81" r="1.3" fill="#E8B4B8"/>
  <circle cx="74" cy="80" r="1.3" fill="#E8B4B8"/>
  <circle cx="77" cy="81" r="1.3" fill="#E8B4B8"/>
  <!-- Head -->
  <ellipse cx="60" cy="50" rx="26" ry="24" fill="#D4A574"/>
  <!-- Cheek blush (bigger - excited) -->
  <ellipse cx="40" cy="56" rx="8" ry="5" fill="#E8B4B8" opacity="0.6"/>
  <ellipse cx="80" cy="56" rx="8" ry="5" fill="#E8B4B8" opacity="0.6"/>
  <!-- M-mark -->
  <path d="M48 35 L52 29 L56 35" stroke="#C49668" stroke-width="2" fill="none" stroke-linecap="round"/>
  <path d="M56 35 L60 29 L64 35" stroke="#C49668" stroke-width="2" fill="none" stroke-linecap="round"/>
  <path d="M64 35 L68 29 L72 35" stroke="#C49668" stroke-width="2" fill="none" stroke-linecap="round"/>
  <!-- Left ear (perked up) -->
  <path d="M36 39 L29 11 L49 31" fill="#D4A574"/>
  <path d="M38 37 L32 15 L47 31" fill="#E8B4B8"/>
  <!-- Right ear (perked up) -->
  <path d="M84 39 L91 11 L71 31" fill="#D4A574"/>
  <path d="M82 37 L88 15 L73 31" fill="#E8B4B8"/>
  <!-- Happy ^^ eyes (left) -->
  <path d="M42 48 Q47 42 52 48" stroke="#4A3F35" stroke-width="2.5" fill="none" stroke-linecap="round"/>
  <!-- Happy ^^ eyes (right) -->
  <path d="M68 48 Q73 42 78 48" stroke="#4A3F35" stroke-width="2.5" fill="none" stroke-linecap="round"/>
  <!-- Nose -->
  <path d="M58 55 L60 57 L62 55" fill="#D4918A" stroke="#D4918A" stroke-width="0.5" stroke-linejoin="round"/>
  <!-- Big happy mouth -->
  <path d="M52 59 Q56 66 60 63 Q64 66 68 59" stroke="#4A3F35" stroke-width="1.2" fill="none" stroke-linecap="round"/>
  <!-- Whiskers left -->
  <line x1="44" y1="55" x2="28" y2="52" stroke="#4A3F35" stroke-width="0.7"/>
  <line x1="44" y1="57" x2="28" y2="58" stroke="#4A3F35" stroke-width="0.7"/>
  <!-- Whiskers right -->
  <line x1="76" y1="55" x2="92" y2="52" stroke="#4A3F35" stroke-width="0.7"/>
  <line x1="76" y1="57" x2="92" y2="58" stroke="#4A3F35" stroke-width="0.7"/>
  <!-- Sparkle effects -->
  <path d="M18 30 L20 26 L22 30 L26 32 L22 34 L20 38 L18 34 L14 32 Z" fill="#F5EDE4" opacity="0.7"/>
  <circle cx="95" cy="28" r="2" fill="#F5EDE4" opacity="0.5"/>
  <circle cx="100" cy="42" r="1.5" fill="#F5EDE4" opacity="0.4"/>
</svg>