<svg xmlns="http://www.w3.org/2000/svg" width="120" height="140" viewBox="0 0 120 140">
  <!-- Tail -->
  <path d="M28 105 Q10 95 12 75 Q14 60 24 65 Q30 68 26 80 Q22 92 32 100" fill="#D4A574" stroke="#C49668" stroke-width="1"/>
  <path d="M14 78 Q16 70 22 72" stroke="#C49668" stroke-width="1.2" fill="none"/>
  <!-- Body -->
  <ellipse cx="58" cy="95" rx="28" ry="24" fill="#D4A574"/>
  <!-- Belly/chest lighter area -->
  <ellipse cx="60" cy="100" rx="16" ry="18" fill="#F5EDE4"/>
  <!-- Body stripes -->
  <path d="M42 82 Q48 78 54 82" stroke="#C49668" stroke-width="2" fill="none" stroke-linecap="round"/>
  <path d="M38 88 Q45 84 52 88" stroke="#C49668" stroke-width="2" fill="none" stroke-linecap="round"/>
  <path d="M40 94 Q47 91 54 94" stroke="#C49668" stroke-width="1.8" fill="none" stroke-linecap="round"/>
  <!-- Back left leg -->
  <ellipse cx="42" cy="116" rx="8" ry="6" fill="#D4A574"/>
  <ellipse cx="42" cy="119" rx="7" ry="3" fill="#E8C9A8"/>
  <!-- Toe beans back left -->
  <circle cx="38" cy="120" r="1.5" fill="#E8B4B8"/>
  <circle cx="42" cy="121" r="1.5" fill="#E8B4B8"/>
  <circle cx="46" cy="120" r="1.5" fill="#E8B4B8"/>
  <!-- Back right leg -->
  <ellipse cx="72" cy="116" rx="8" ry="6" fill="#B8845A"/>
  <ellipse cx="72" cy="119" rx="7" ry="3" fill="#D4A574"/>
  <circle cx="68" cy="120" r="1.5" fill="#E8B4B8"/>
  <circle cx="72" cy="121" r="1.5" fill="#E8B4B8"/>
  <circle cx="76" cy="120" r="1.5" fill="#E8B4B8"/>
  <!-- Front left leg -->
  <rect x="44" y="104" width="9" height="14" rx="4" fill="#D4A574"/>
  <ellipse cx="48" cy="119" rx="6" ry="3" fill="#E8C9A8"/>
  <circle cx="45" cy="120" r="1.3" fill="#E8B4B8"/>
  <circle cx="48" cy="121" r="1.3" fill="#E8B4B8"/>
  <circle cx="51" cy="120" r="1.3" fill="#E8B4B8"/>
  <!-- Front right leg -->
  <rect x="62" y="104" width="9" height="14" rx="4" fill="#B8845A"/>
  <ellipse cx="66" cy="119" rx="6" ry="3" fill="#D4A574"/>
  <circle cx="63" cy="120" r="1.3" fill="#E8B4B8"/>
  <circle cx="66" cy="121" r="1.3" fill="#E8B4B8"/>
  <circle cx="69" cy="120" r="1.3" fill="#E8B4B8"/>
  <!-- Head -->
  <ellipse cx="60" cy="55" rx="26" ry="24" fill="#D4A574"/>
  <!-- Cheek blush left -->
  <ellipse cx="40" cy="60" rx="6" ry="4" fill="#E8B4B8" opacity="0.5"/>
  <!-- Cheek blush right -->
  <ellipse cx="80" cy="60" rx="6" ry="4" fill="#E8B4B8" opacity="0.5"/>
  <!-- M-mark on forehead -->
  <path d="M48 40 L52 34 L56 40" stroke="#C49668" stroke-width="2" fill="none" stroke-linecap="round"/>
  <path d="M56 40 L60 34 L64 40" stroke="#C49668" stroke-width="2" fill="none" stroke-linecap="round"/>
  <path d="M64 40 L68 34 L72 40" stroke="#C49668" stroke-width="2" fill="none" stroke-linecap="round"/>
  <!-- Left ear -->
  <path d="M36 44 L30 18 L48 36" fill="#D4A574"/>
  <path d="M38 42 L33 22 L46 36" fill="#E8B4B8"/>
  <!-- Right ear -->
  <path d="M84 44 L90 18 L72 36" fill="#D4A574"/>
  <path d="M82 42 L87 22 L74 36" fill="#E8B4B8"/>
  <!-- Left eye -->
  <ellipse cx="50" cy="54" rx="6" ry="6.5" fill="white"/>
  <ellipse cx="51" cy="55" rx="4" ry="4.5" fill="#4A3F35"/>
  <circle cx="53" cy="53" r="1.5" fill="white"/>
  <circle cx="49" cy="57" r="0.8" fill="white"/>
  <!-- Right eye -->
  <ellipse cx="70" cy="54" rx="6" ry="6.5" fill="white"/>
  <ellipse cx="71" cy="55" rx="4" ry="4.5" fill="#4A3F35"/>
  <circle cx="73" cy="53" r="1.5" fill="white"/>
  <circle cx="69" cy="57" r="0.8" fill="white"/>
  <!-- Nose -->
  <path d="M58 62 L60 64 L62 62" fill="#D4918A" stroke="#D4918A" stroke-width="0.5" stroke-linejoin="round"/>
  <!-- Mouth -->
  <path d="M60 64 Q56 68 54 66" stroke="#4A3F35" stroke-width="1" fill="none" stroke-linecap="round"/>
  <path d="M60 64 Q64 68 66 66" stroke="#4A3F35" stroke-width="1" fill="none" stroke-linecap="round"/>
  <!-- Whiskers left -->
  <line x1="44" y1="60" x2="28" y2="57" stroke="#4A3F35" stroke-width="0.7"/>
  <line x1="44" y1="62" x2="28" y2="63" stroke="#4A3F35" stroke-width="0.7"/>
  <line x1="44" y1="64" x2="29" y2="69" stroke="#4A3F35" stroke-width="0.7"/>
  <!-- Whiskers right -->
  <line x1="76" y1="60" x2="92" y2="57" stroke="#4A3F35" stroke-width="0.7"/>
  <line x1="76" y1="62" x2="92" y2="63" stroke="#4A3F35" stroke-width="0.7"/>
  <line x1="76" y1="64" x2="91" y2="69" stroke="#4A3F35" stroke-width="0.7"/>
</svg>