<svg xmlns="http://www.w3.org/2000/svg" width="120" height="140" viewBox="0 0 120 140">
  <!-- Tail -->
  <path d="M28 102 Q10 92 12 72 Q14 57 24 62 Q30 65 26 77 Q22 89 32 97" fill="#D4A574" stroke="#C49668" stroke-width="1"/>
  <path d="M14 75 Q16 67 22 69" stroke="#C49668" stroke-width="1.2" fill="none"/>
  <!-- Body (slightly expanded - breath in) -->
  <ellipse cx="58" cy="93" rx="30" ry="26" fill="#D4A574"/>
  <!-- Belly/chest lighter area -->
  <ellipse cx="60" cy="98" rx="17" ry="20" fill="#F5EDE4"/>
  <!-- Body stripes -->
  <path d="M40 79 Q47 75 54 79" stroke="#C49668" stroke-width="2" fill="none" stroke-linecap="round"/>
  <path d="M36 85 Q44 81 52 85" stroke="#C49668" stroke-width="2" fill="none" stroke-linecap="round"/>
  <path d="M38 91 Q46 88 53 91" stroke="#C49668" stroke-width="1.8" fill="none" stroke-linecap="round"/>
  <!-- Back left leg -->
  <ellipse cx="42" cy="114" rx="8" ry="6" fill="#D4A574"/>
  <ellipse cx="42" cy="117" rx="7" ry="3" fill="#E8C9A8"/>
  <circle cx="38" cy="118" r="1.5" fill="#E8B4B8"/>
  <circle cx="42" cy="119" r="1.5" fill="#E8B4B8"/>
  <circle cx="46" cy="118" r="1.5" fill="#E8B4B8"/>
  <!-- Back right leg -->
  <ellipse cx="72" cy="114" rx="8" ry="6" fill="#B8845A"/>
  <ellipse cx="72" cy="117" rx="7" ry="3" fill="#D4A574"/>
  <circle cx="68" cy="118" r="1.5" fill="#E8B4B8"/>
  <circle cx="72" cy="119" r="1.5" fill="#E8B4B8"/>
  <circle cx="76" cy="118" r="1.5" fill="#E8B4B8"/>
  <!-- Front left leg -->
  <rect x="42" y="102" width="9" height="14" rx="4" fill="#D4A574"/>
  <ellipse cx="46" cy="117" rx="6" ry="3" fill="#E8C9A8"/>
  <circle cx="43" cy="118" r="1.3" fill="#E8B4B8"/>
  <circle cx="46" cy="119" r="1.3" fill="#E8B4B8"/>
  <circle cx="49" cy="118" r="1.3" fill="#E8B4B8"/>
  <!-- Front right leg -->
  <rect x="64" y="102" width="9" height="14" rx="4" fill="#B8845A"/>
  <ellipse cx="68" cy="117" rx="6" ry="3" fill="#D4A574"/>
  <circle cx="65" cy="118" r="1.3" fill="#E8B4B8"/>
  <circle cx="68" cy="119" r="1.3" fill="#E8B4B8"/>
  <circle cx="71" cy="118" r="1.3" fill="#E8B4B8"/>
  <!-- Head -->
  <ellipse cx="60" cy="52" rx="26" ry="24" fill="#D4A574"/>
  <!-- Cheek blush -->
  <ellipse cx="40" cy="57" rx="6" ry="4" fill="#E8B4B8" opacity="0.5"/>
  <ellipse cx="80" cy="57" rx="6" ry="4" fill="#E8B4B8" opacity="0.5"/>
  <!-- M-mark -->
  <path d="M48 37 L52 31 L56 37" stroke="#C49668" stroke-width="2" fill="none" stroke-linecap="round"/>
  <path d="M56 37 L60 31 L64 37" stroke="#C49668" stroke-width="2" fill="none" stroke-linecap="round"/>
  <path d="M64 37 L68 31 L72 37" stroke="#C49668" stroke-width="2" fill="none" stroke-linecap="round"/>
  <!-- Left ear -->
  <path d="M36 41 L30 15 L48 33" fill="#D4A574"/>
  <path d="M38 39 L33 19 L46 33" fill="#E8B4B8"/>
  <!-- Right ear -->
  <path d="M84 41 L90 15 L72 33" fill="#D4A574"/>
  <path d="M82 39 L87 19 L74 33" fill="#E8B4B8"/>
  <!-- Left eye -->
  <ellipse cx="50" cy="51" rx="6" ry="6.5" fill="white"/>
  <ellipse cx="51" cy="52" rx="4" ry="4.5" fill="#4A3F35"/>
  <circle cx="53" cy="50" r="1.5" fill="white"/>
  <circle cx="49" cy="54" r="0.8" fill="white"/>
  <!-- Right eye -->
  <ellipse cx="70" cy="51" rx="6" ry="6.5" fill="white"/>
  <ellipse cx="71" cy="52" rx="4" ry="4.5" fill="#4A3F35"/>
  <circle cx="73" cy="50" r="1.5" fill="white"/>
  <circle cx="69" cy="54" r="0.8" fill="white"/>
  <!-- Nose -->
  <path d="M58 59 L60 61 L62 59" fill="#D4918A" stroke="#D4918A" stroke-width="0.5" stroke-linejoin="round"/>
  <!-- Mouth -->
  <path d="M60 61 Q56 65 54 63" stroke="#4A3F35" stroke-width="1" fill="none" stroke-linecap="round"/>
  <path d="M60 61 Q64 65 66 63" stroke="#4A3F35" stroke-width="1" fill="none" stroke-linecap="round"/>
  <!-- Whiskers left -->
  <line x1="44" y1="57" x2="28" y2="54" stroke="#4A3F35" stroke-width="0.7"/>
  <line x1="44" y1="59" x2="28" y2="60" stroke="#4A3F35" stroke-width="0.7"/>
  <line x1="44" y1="61" x2="29" y2="66" stroke="#4A3F35" stroke-width="0.7"/>
  <!-- Whiskers right -->
  <line x1="76" y1="57" x2="92" y2="54" stroke="#4A3F35" stroke-width="0.7"/>
  <line x1="76" y1="59" x2="92" y2="60" stroke="#4A3F35" stroke-width="0.7"/>
  <line x1="76" y1="61" x2="91" y2="66" stroke="#4A3F35" stroke-width="0.7"/>
</svg>