<svg xmlns="http://www.w3.org/2000/svg" width="120" height="140" viewBox="0 0 120 140">
  <!-- Tail -->
  <path d="M28 105 Q10 95 12 75 Q14 60 24 65 Q30 68 26 80 Q22 92 32 100" fill="#D4A574" stroke="#C49668" stroke-width="1"/>
  <path d="M14 78 Q16 70 22 72" stroke="#C49668" stroke-width="1.2" fill="none"/>
  <!-- Body -->
  <ellipse cx="58" cy="95" rx="28" ry="24" fill="#D4A574"/>
  <!-- Belly -->
  <ellipse cx="60" cy="100" rx="16" ry="18" fill="#F5EDE4"/>
  <!-- Body stripes -->
  <path d="M42 82 Q48 78 54 82" stroke="#C49668" stroke-width="2" fill="none" stroke-linecap="round"/>
  <path d="M38 88 Q45 84 52 88" stroke="#C49668" stroke-width="2" fill="none" stroke-linecap="round"/>
  <path d="M40 94 Q47 91 54 94" stroke="#C49668" stroke-width="1.8" fill="none" stroke-linecap="round"/>
  <!-- Back left leg -->
  <ellipse cx="42" cy="116" rx="8" ry="6" fill="#D4A574"/>
  <ellipse cx="42" cy="119" rx="7" ry="3" fill="#E8C9A8"/>
  <circle cx="38" cy="120" r="1.5" fill="#E8B4B8"/>
  <circle cx="42" cy="121" r="1.5" fill="#E8B4B8"/>
  <circle cx="46" cy="120" r="1.5" fill="#E8B4B8"/>
  <!-- Back right leg -->
  <ellipse cx="72" cy="116" rx="8" ry="6" fill="#B8845A"/>
  <ellipse cx="72" cy="119" rx="7" ry="3" fill="#D4A574"/>
  <circle cx="68" cy="120" r="1.5" fill="#E8B4B8"/>
  <circle cx="72" cy="121" r="1.5" fill="#E8B4B8"/>
  <circle cx="76" cy="120" r="1.5" fill="#E8B4B8"/>
  <!-- Front left leg -->
  <rect x="44" y="104" width="9" height="14" rx="4" fill="#D4A574"/>
  <ellipse cx="48" cy="119" rx="6" ry="3" fill="#E8C9A8"/>
  <circle cx="45" cy="120" r="1.3" fill="#E8B4B8"/>
  <circle cx="48" cy="121" r="1.3" fill="#E8B4B8"/>
  <circle cx="51" cy="120" r="1.3" fill="#E8B4B8"/>
  <!-- Front right leg -->
  <rect x="62" y="104" width="9" height="14" rx="4" fill="#B8845A"/>
  <ellipse cx="66" cy="119" rx="6" ry="3" fill="#D4A574"/>
  <circle cx="63" cy="120" r="1.3" fill="#E8B4B8"/>
  <circle cx="66" cy="121" r="1.3" fill="#E8B4B8"/>
  <circle cx="69" cy="120" r="1.3" fill="#E8B4B8"/>
  <!-- Head (slight tilt - shifted left) -->
  <ellipse cx="58" cy="54" rx="26" ry="24" fill="#D4A574"/>
  <!-- Cheek blush -->
  <ellipse cx="38" cy="59" rx="6" ry="4" fill="#E8B4B8" opacity="0.5"/>
  <ellipse cx="78" cy="59" rx="6" ry="4" fill="#E8B4B8" opacity="0.5"/>
  <!-- M-mark (tilted) -->
  <path d="M46 39 L50 33 L54 39" stroke="#C49668" stroke-width="2" fill="none" stroke-linecap="round"/>
  <path d="M54 39 L58 33 L62 39" stroke="#C49668" stroke-width="2" fill="none" stroke-linecap="round"/>
  <path d="M62 39 L66 33 L70 39" stroke="#C49668" stroke-width="2" fill="none" stroke-linecap="round"/>
  <!-- Left ear -->
  <path d="M34 42 L27 16 L46 33" fill="#D4A574"/>
  <path d="M36 40 L30 20 L44 33" fill="#E8B4B8"/>
  <!-- Right ear -->
  <path d="M82 44 L90 18 L70 35" fill="#D4A574"/>
  <path d="M80 42 L87 22 L72 35" fill="#E8B4B8"/>
  <!-- Left eye (slightly shifted with head tilt) -->
  <ellipse cx="48" cy="53" rx="6" ry="6.5" fill="white"/>
  <ellipse cx="49" cy="54" rx="4" ry="4.5" fill="#4A3F35"/>
  <circle cx="51" cy="52" r="1.5" fill="white"/>
  <circle cx="47" cy="56" r="0.8" fill="white"/>
  <!-- Right eye -->
  <ellipse cx="68" cy="53" rx="6" ry="6.5" fill="white"/>
  <ellipse cx="69" cy="54" rx="4" ry="4.5" fill="#4A3F35"/>
  <circle cx="71" cy="52" r="1.5" fill="white"/>
  <circle cx="67" cy="56" r="0.8" fill="white"/>
  <!-- Nose -->
  <path d="M56 61 L58 63 L60 61" fill="#D4918A" stroke="#D4918A" stroke-width="0.5" stroke-linejoin="round"/>
  <!-- Mouth -->
  <path d="M58 63 Q54 67 52 65" stroke="#4A3F35" stroke-width="1" fill="none" stroke-linecap="round"/>
  <path d="M58 63 Q62 67 64 65" stroke="#4A3F35" stroke-width="1" fill="none" stroke-linecap="round"/>
  <!-- Whiskers left -->
  <line x1="42" y1="59" x2="26" y2="56" stroke="#4A3F35" stroke-width="0.7"/>
  <line x1="42" y1="61" x2="26" y2="62" stroke="#4A3F35" stroke-width="0.7"/>
  <line x1="42" y1="63" x2="27" y2="68" stroke="#4A3F35" stroke-width="0.7"/>
  <!-- Whiskers right -->
  <line x1="74" y1="59" x2="90" y2="56" stroke="#4A3F35" stroke-width="0.7"/>
  <line x1="74" y1="61" x2="90" y2="62" stroke="#4A3F35" stroke-width="0.7"/>
  <line x1="74" y1="63" x2="89" y2="68" stroke="#4A3F35" stroke-width="0.7"/>
</svg>